<svg xmlns="http://www.w3.org/2000/svg" width="28" height="28"><circle cx="14" cy="14" r="14" fill="#fff"/><path fill="#4285f4" d="M22.809 14.161c0-.6-.1-1.2-.1-1.7h-8.5v3.4h4.8c-.2 1.1-.9 2-1.8 2.7v2.2h2.9c1.7-1.5 2.7-3.8 2.7-6.6z"/><path fill="#34a853" d="M14.209 22.961c2.4 0 4.5-.8 5.9-2.2l-2.9-2.2c-.8.5-1.8.9-3 .9-2.3 0-4.3-1.6-5-3.7h-3v2.3c1.4 2.9 4.5 4.9 8 4.9z"/><path fill="#fbbc05" d="M9.109 15.761c-.2-.5-.3-1.1-.3-1.7s.1-1.2.3-1.7v-2.3h-3c-.6 1.2-1 2.6-1 4s.4 2.8 1 4l3-2.3z"/><path fill="#ea4335" d="M14.209 8.561c1.3 0 2.5.5 3.4 1.3l2.6-2.6c-1.6-1.5-3.6-2.3-6-2.3-3.5 0-6.5 2-8 5l3 2.3c.7-2.1 2.6-3.7 5-3.7z"/></svg>