<svg xmlns="http://www.w3.org/2000/svg" xmlns:xlink="http://www.w3.org/1999/xlink" width="28" height="28"><circle cx="14" cy="14" r="14" fill="#fff"/><use xlink:href="#a" fill="#f90"/><use xlink:href="#b" fill-rule="evenodd"/><use xlink:href="#a" fill="#f90"/><use xlink:href="#b" fill-rule="evenodd"/><defs><path id="a" d="M20.5 19.8c-7.4 3.5-11.9.6-14.8-1.2-.2-.1-.5 0-.2.3 1 1.2 4.2 4 8.3 4 4.2 0 6.6-2.3 7-2.7.3-.4 0-.6-.3-.4zm2.1-1.2c-.2-.3-1.2-.3-1.8-.2s-1.6.5-1.5.7c0 .1.1 0 .6 0 .4 0 1.7-.2 1.9.1.3.3-.4 1.9-.5 2.2s0 .3.3.2c.2-.2.6-.6.8-1.2.2-.7.3-1.6.2-1.8z"/><path id="b" d="M15.6 12.6c0 .9 0 1.7-.4 2.5-.4.7-1 1.1-1.6 1.1-.9 0-1.4-.7-1.4-1.7 0-2 1.8-2.4 3.5-2.4v.5zm2.4 5.8c-.2.1-.4.1-.6.1-.8-.7-.9-1-1.4-1.6-1.3 1.3-2.2 1.7-3.9 1.7-2 0-3.5-1.2-3.5-3.7 0-1.9 1-3.2 2.5-3.9 1.3-.6 3.1-.7 4.4-.8v-.3c0-.6 0-1.2-.3-1.7-.2-.4-.7-.6-1.2-.6-.9 0-1.7.5-1.9 1.4 0 .2-.2.4-.4.4l-2.3-.2C9.2 9.1 9 9 9 8.7c.5-2.8 3-3.6 5.3-3.6 1.1 0 2.6.3 3.6 1.2 1.1 1.1 1 2.5 1 4.1V14c0 1.1.5 1.6.9 2.2.2.2.2.5 0 .6a29.1 29.1 0 0 0-1.8 1.6"/></defs></svg>